<svg xmlns="http://www.w3.org/2000/svg" width="19" height="19" viewBox="0 0 19 19">
    <path fill="#697886" fill-rule="nonzero" d="M16.191 8.927h2.783a9.434 9.434 0 0 0-2.767-6.16A9.434 9.434 0 0 0 10.047 0v2.783h-1.12V0a9.434 9.434 0 0 0-6.16 2.767A9.434 9.434 0 0 0 0 8.927h2.783v1.12H0a9.434 9.434 0 0 0 2.767 6.16 9.434 9.434 0 0 0 6.16 2.767v-2.783h1.12v2.783a9.434 9.434 0 0 0 6.16-2.767 9.434 9.434 0 0 0 2.767-6.16h-2.783v-1.12zm-2.51 5.584L8.89 9.719V5.568h1.12v3.687l4.464 4.464-.792.792z" opacity=".7"/>
</svg>
