<?xml version="1.0" encoding="UTF-8"?>
<svg width="21px" height="24px" viewBox="0 0 21 24" version="1.1" xmlns="http://www.w3.org/2000/svg" xmlns:xlink="http://www.w3.org/1999/xlink">
    <!-- Generator: Sketch 59 (86127) - https://sketch.com -->
    <title>route (3) copy 3</title>
    <desc>Created with Sketch.</desc>
    <g id="City-List" stroke="none" stroke-width="1" fill="none" fill-rule="evenodd">
        <g id="Voicemap-City-List-Tours-Mobi" transform="translate(-279.000000, -737.000000)" fill="#939DA8" fill-rule="nonzero">
            <g id="Group-2" transform="translate(16.000000, 476.000000)">
                <g id="route-(3)-copy-3" transform="translate(263.000000, 261.000000)">
                    <path d="M10.7729806,19.6604186 L2.23869632,15.7089243 L5.34846288,14.1306849 C5.03580821,13.8180302 4.66782445,13.4023365 4.40424033,13.0839675 L0.372020053,15.1302365 C-0.134467812,15.3874261 -0.119728507,16.116999 0.39424239,16.3542791 L12.0913547,21.7697265 C11.6253205,21.1220587 11.1636402,20.393665 10.7729806,19.6604186 Z" id="Path"></path>
                    <g id="Group" transform="translate(2.040827, 0.000000)">
                        <path d="M4.71626008,0 C2.14055522,0 0.0450342452,2.09552098 0.0450342452,4.67122583 C0.0450342452,8.89537454 4.06414788,12.9630599 4.23525987,13.1341265 C4.50088482,13.3997968 4.93163534,13.3998421 5.19730564,13.1341265 C5.36837227,12.9630599 9.38753126,8.89537454 9.38753126,4.67122583 C9.38753126,2.09552098 7.29196493,0 4.71626008,0 Z M4.69390169,6.64402509 C3.60609564,6.64402509 2.72110243,5.75903188 2.72110243,4.67122583 C2.72110243,3.58341979 3.60609564,2.69842657 4.69390169,2.69842657 C5.78170773,2.69842657 6.66670095,3.58341979 6.66670095,4.67122583 C6.66670095,5.75903188 5.78170773,6.64402509 4.69390169,6.64402509 Z" id="Shape"></path>
                    </g>
                    <g id="Group" transform="translate(10.657651, 9.886672)">
                        <path d="M4.71626008,0 C2.14055522,0 0.0450342452,2.09552098 0.0450342452,4.67122583 C0.0450342452,8.89537454 4.06414788,12.9630599 4.23525987,13.1341265 C4.50088482,13.3997968 4.93163534,13.3998421 5.19730564,13.1341265 C5.36837227,12.9630599 9.38753126,8.89537454 9.38753126,4.67122583 C9.38753126,2.09552098 7.29196493,0 4.71626008,0 Z M4.69390169,6.66670095 C3.60609564,6.66670095 2.72110243,5.78170773 2.72110243,4.69390169 C2.72110243,3.60609564 3.60609564,2.72110243 4.69390169,2.72110243 C5.78170773,2.72110243 6.66670095,3.60609564 6.66670095,4.69390169 C6.66670095,5.78170773 5.78170773,6.66670095 4.69390169,6.66670095 Z" id="Shape"></path>
                    </g>
                </g>
            </g>
        </g>
    </g>
</svg>